<?xml version="1.0" encoding="UTF-8"?>
<mxfile host="ac.draw.io" modified="2023-05-18T19:04:09.401Z" agent="Mozilla/5.0 (Macintosh; Intel Mac OS X 10_15_7) AppleWebKit/537.36 (KHTML, like Gecko) Chrome/113.0.0.0 Safari/537.36" etag="ZCshj4sH-l9PTLD1u3Gb" version="21.3.2" type="embed">
  <diagram id="OI51ZuOf5320KU-YAGif" name="Page-1">
    <mxGraphModel dx="1306" dy="706" grid="1" gridSize="10" guides="1" tooltips="1" connect="1" arrows="1" fold="1" page="1" pageScale="1" pageWidth="850" pageHeight="1100" math="0" shadow="0">
      <root>
        <mxCell id="0" />
        <mxCell id="1" parent="0" />
        <mxCell id="5_tG-FusjFiMP4VoGnVM-2" value="&lt;font style=&quot;font-size: 24px&quot;&gt;OPTIMIZED LIBRARIES&lt;/font&gt;" style="rounded=0;whiteSpace=wrap;html=1;fontColor=#ffffff;fillColor=#44BBF1;strokeColor=#FFFFFF;verticalAlign=top;" parent="1" vertex="1">
          <mxGeometry x="770.25" y="320" width="190.5" height="190" as="geometry" />
        </mxCell>
        <mxCell id="5_tG-FusjFiMP4VoGnVM-3" value="&lt;font style=&quot;font-size: 24px&quot;&gt;&lt;span style=&quot;font-weight: normal&quot;&gt;EXAMPLE APPLICATIONS&lt;/span&gt;&lt;/font&gt;" style="rounded=0;whiteSpace=wrap;html=1;fontColor=#ffffff;fillColor=#44BBF1;strokeColor=#FFFFFF;fontStyle=1" parent="1" vertex="1">
          <mxGeometry x="40" y="10" width="920" height="80" as="geometry" />
        </mxCell>
        <mxCell id="5_tG-FusjFiMP4VoGnVM-4" value="&lt;font style=&quot;font-size: 24px&quot;&gt;MIDDLEWARE&lt;/font&gt;" style="rounded=0;whiteSpace=wrap;html=1;fontColor=#ffffff;fillColor=#44BBF1;strokeColor=#FFFFFF;verticalAlign=top;" parent="1" vertex="1">
          <mxGeometry x="240" y="100" width="720" height="210" as="geometry" />
        </mxCell>
        <mxCell id="5_tG-FusjFiMP4VoGnVM-5" value="&lt;font style=&quot;font-size: 24px&quot;&gt;HARDWARE IMITATION LAYER&lt;/font&gt;" style="rounded=0;whiteSpace=wrap;html=1;fontColor=#ffffff;fillColor=#44BBF1;strokeColor=#FFFFFF;verticalAlign=top;" parent="1" vertex="1">
          <mxGeometry x="320.75" y="370" width="440" height="140" as="geometry" />
        </mxCell>
        <mxCell id="5_tG-FusjFiMP4VoGnVM-6" value="&lt;font style=&quot;font-size: 20px&quot;&gt;USB Stack&lt;/font&gt;" style="text;html=1;strokeColor=none;fillColor=none;align=center;verticalAlign=middle;whiteSpace=wrap;rounded=0;fontColor=#FFFFFF;" parent="1" vertex="1">
          <mxGeometry x="307.5" y="165" width="150" height="20" as="geometry" />
        </mxCell>
        <mxCell id="5_tG-FusjFiMP4VoGnVM-8" value="&lt;font style=&quot;font-size: 20px&quot; color=&quot;#ffffff&quot;&gt;Networking&lt;/font&gt;" style="text;html=1;strokeColor=none;fillColor=none;align=center;verticalAlign=middle;whiteSpace=wrap;rounded=0;" parent="1" vertex="1">
          <mxGeometry x="525" y="170" width="150" height="10" as="geometry" />
        </mxCell>
        <mxCell id="5_tG-FusjFiMP4VoGnVM-9" value="&lt;font style=&quot;font-size: 20px&quot; color=&quot;#ffffff&quot;&gt;Device Control&lt;/font&gt;" style="text;html=1;strokeColor=none;fillColor=none;align=center;verticalAlign=middle;whiteSpace=wrap;rounded=0;" parent="1" vertex="1">
          <mxGeometry x="525" y="230" width="150" height="40" as="geometry" />
        </mxCell>
        <mxCell id="5_tG-FusjFiMP4VoGnVM-10" value="&lt;font style=&quot;font-size: 20px&quot;&gt;IoT&lt;/font&gt;" style="text;html=1;strokeColor=none;fillColor=none;align=center;verticalAlign=middle;whiteSpace=wrap;rounded=0;fontColor=#FFFFFF;" parent="1" vertex="1">
          <mxGeometry x="780" y="242" width="90" height="20" as="geometry" />
        </mxCell>
        <mxCell id="5_tG-FusjFiMP4VoGnVM-11" value="&lt;font style=&quot;font-size: 20px&quot; color=&quot;#ffffff&quot;&gt;I2S&lt;/font&gt;" style="text;html=1;strokeColor=none;fillColor=none;align=center;verticalAlign=middle;whiteSpace=wrap;rounded=0;" parent="1" vertex="1">
          <mxGeometry x="307.5" y="420" width="110" height="30" as="geometry" />
        </mxCell>
        <mxCell id="5_tG-FusjFiMP4VoGnVM-12" value="&lt;font style=&quot;font-size: 20px&quot; color=&quot;#ffffff&quot;&gt;I2C&lt;/font&gt;" style="text;html=1;strokeColor=none;fillColor=none;align=center;verticalAlign=middle;whiteSpace=wrap;rounded=0;" parent="1" vertex="1">
          <mxGeometry x="307.5" y="470" width="110" height="30" as="geometry" />
        </mxCell>
        <mxCell id="5_tG-FusjFiMP4VoGnVM-13" value="&lt;font style=&quot;font-size: 20px&quot; color=&quot;#ffffff&quot;&gt;GPIO&lt;/font&gt;" style="text;html=1;strokeColor=none;fillColor=none;align=center;verticalAlign=middle;whiteSpace=wrap;rounded=0;" parent="1" vertex="1">
          <mxGeometry x="384.5" y="420" width="110" height="30" as="geometry" />
        </mxCell>
        <mxCell id="5_tG-FusjFiMP4VoGnVM-14" value="&lt;font style=&quot;font-size: 20px&quot; color=&quot;#ffffff&quot;&gt;SPI&lt;/font&gt;" style="text;html=1;strokeColor=none;fillColor=none;align=center;verticalAlign=middle;whiteSpace=wrap;rounded=0;" parent="1" vertex="1">
          <mxGeometry x="384.5" y="470" width="110" height="30" as="geometry" />
        </mxCell>
        <mxCell id="5_tG-FusjFiMP4VoGnVM-15" value="&lt;font style=&quot;font-size: 20px&quot; color=&quot;#ffffff&quot;&gt;QSPI&lt;/font&gt;" style="text;html=1;strokeColor=none;fillColor=none;align=center;verticalAlign=middle;whiteSpace=wrap;rounded=0;" parent="1" vertex="1">
          <mxGeometry x="487.5" y="470" width="109" height="30" as="geometry" />
        </mxCell>
        <mxCell id="5_tG-FusjFiMP4VoGnVM-16" value="&lt;font style=&quot;font-size: 20px&quot; color=&quot;#ffffff&quot;&gt;Mic Array&lt;/font&gt;" style="text;html=1;strokeColor=none;fillColor=none;align=center;verticalAlign=middle;whiteSpace=wrap;rounded=0;" parent="1" vertex="1">
          <mxGeometry x="487.5" y="420" width="109" height="30" as="geometry" />
        </mxCell>
        <mxCell id="5_tG-FusjFiMP4VoGnVM-17" value="&lt;font style=&quot;font-size: 20px&quot;&gt;WiFi&lt;/font&gt;" style="text;html=1;strokeColor=none;fillColor=none;align=center;verticalAlign=middle;whiteSpace=wrap;rounded=0;fontColor=#ffffff;" parent="1" vertex="1">
          <mxGeometry x="661" y="470" width="109" height="30" as="geometry" />
        </mxCell>
        <mxCell id="5_tG-FusjFiMP4VoGnVM-18" value="&lt;font style=&quot;font-size: 20px&quot; color=&quot;#ffffff&quot;&gt;FAT Filesystem&lt;/font&gt;" style="text;html=1;strokeColor=none;fillColor=none;align=center;verticalAlign=middle;whiteSpace=wrap;rounded=0;" parent="1" vertex="1">
          <mxGeometry x="328" y="235" width="109" height="30" as="geometry" />
        </mxCell>
        <mxCell id="5_tG-FusjFiMP4VoGnVM-19" value="&lt;font style=&quot;font-size: 20px&quot;&gt;USB&lt;/font&gt;" style="text;html=1;strokeColor=none;fillColor=none;align=center;verticalAlign=middle;whiteSpace=wrap;rounded=0;fontStyle=0;fontColor=#FFFFFF;" parent="1" vertex="1">
          <mxGeometry x="585.5" y="420" width="109" height="30" as="geometry" />
        </mxCell>
        <mxCell id="5_tG-FusjFiMP4VoGnVM-20" value="&lt;font style=&quot;font-size: 20px&quot;&gt;SwMem&lt;/font&gt;" style="text;html=1;strokeColor=none;fillColor=none;align=center;verticalAlign=middle;whiteSpace=wrap;rounded=0;fontStyle=0;fontColor=#FFFFFF;" parent="1" vertex="1">
          <mxGeometry x="585.5" y="470" width="109" height="30" as="geometry" />
        </mxCell>
        <mxCell id="5_tG-FusjFiMP4VoGnVM-21" value="&lt;font style=&quot;font-size: 20px&quot; color=&quot;#ffffff&quot;&gt;RPC&lt;/font&gt;" style="text;html=1;strokeColor=none;fillColor=none;align=center;verticalAlign=middle;whiteSpace=wrap;rounded=0;" parent="1" vertex="1">
          <mxGeometry x="661" y="420" width="109" height="30" as="geometry" />
        </mxCell>
        <mxCell id="5_tG-FusjFiMP4VoGnVM-22" value="&lt;font style=&quot;font-size: 20px&quot; color=&quot;#ffffff&quot;&gt;Math&lt;/font&gt;" style="text;html=1;strokeColor=none;fillColor=none;align=center;verticalAlign=middle;whiteSpace=wrap;rounded=0;" parent="1" vertex="1">
          <mxGeometry x="790.5" y="440" width="150" height="20" as="geometry" />
        </mxCell>
        <mxCell id="5_tG-FusjFiMP4VoGnVM-23" value="&lt;font style=&quot;font-size: 20px&quot; color=&quot;#ffffff&quot;&gt;DSP&lt;/font&gt;" style="text;html=1;strokeColor=none;fillColor=none;align=center;verticalAlign=middle;whiteSpace=wrap;rounded=0;" parent="1" vertex="1">
          <mxGeometry x="790.75" y="390" width="150" height="40" as="geometry" />
        </mxCell>
        <mxCell id="5_tG-FusjFiMP4VoGnVM-24" value="&lt;font style=&quot;font-size: 20px&quot;&gt;Neural Network&lt;/font&gt;" style="text;html=1;strokeColor=none;fillColor=none;align=center;verticalAlign=middle;whiteSpace=wrap;rounded=0;fontColor=#ffffff;" parent="1" vertex="1">
          <mxGeometry x="790.5" y="480" width="150" height="10" as="geometry" />
        </mxCell>
        <mxCell id="5_tG-FusjFiMP4VoGnVM-25" value="&lt;span style=&quot;font-size: 24px&quot;&gt;REAL TIME KERNEL&lt;/span&gt;" style="rounded=0;whiteSpace=wrap;html=1;fontColor=#ffffff;fillColor=#44BBF1;strokeColor=#FFFFFF;verticalAlign=top;" parent="1" vertex="1">
          <mxGeometry x="41.5" y="370" width="269.75" height="140" as="geometry" />
        </mxCell>
        <mxCell id="5_tG-FusjFiMP4VoGnVM-26" value="&lt;font style=&quot;font-size: 20px&quot; color=&quot;#ffffff&quot;&gt;FreeRTOS&lt;/font&gt;" style="text;html=1;strokeColor=none;fillColor=none;align=center;verticalAlign=middle;whiteSpace=wrap;rounded=0;" parent="1" vertex="1">
          <mxGeometry x="121.36999999999999" y="435" width="110" height="30" as="geometry" />
        </mxCell>
        <mxCell id="5_tG-FusjFiMP4VoGnVM-27" value="&lt;span style=&quot;font-size: 24px&quot;&gt;HARDWARE&lt;/span&gt;" style="rounded=0;whiteSpace=wrap;html=1;fontColor=#ffffff;strokeColor=#FFFFFF;verticalAlign=top;fillColor=#246380;" parent="1" vertex="1">
          <mxGeometry x="40.75" y="520" width="920" height="60" as="geometry" />
        </mxCell>
        <mxCell id="5_tG-FusjFiMP4VoGnVM-28" style="edgeStyle=orthogonalEdgeStyle;rounded=0;orthogonalLoop=1;jettySize=auto;html=1;exitX=0.5;exitY=1;exitDx=0;exitDy=0;fontColor=#6B6B6B;" parent="1" source="5_tG-FusjFiMP4VoGnVM-24" target="5_tG-FusjFiMP4VoGnVM-24" edge="1">
          <mxGeometry relative="1" as="geometry" />
        </mxCell>
        <mxCell id="5_tG-FusjFiMP4VoGnVM-29" value="" style="rounded=0;whiteSpace=wrap;html=1;fontColor=#ffffff;fillColor=#44BBF1;fontStyle=1;strokeColor=none;" parent="1" vertex="1">
          <mxGeometry x="40.75" y="70" width="189.25" height="240" as="geometry" />
        </mxCell>
        <mxCell id="5_tG-FusjFiMP4VoGnVM-30" value="&lt;span style=&quot;font-size: 24px&quot;&gt;RTOS DRIVERS &amp;amp; OS ABSTRACTION&lt;/span&gt;" style="rounded=0;whiteSpace=wrap;html=1;fontColor=#ffffff;fillColor=#44BBF1;strokeColor=#FFFFFF;verticalAlign=top;" parent="1" vertex="1">
          <mxGeometry x="41.75" y="320" width="719" height="40" as="geometry" />
        </mxCell>
        <mxCell id="MO5fBwGj0ORgs_ncuv7A-1" value="&lt;font style=&quot;font-size: 20px;&quot;&gt;WiFi Manager&lt;/font&gt;" style="text;html=1;strokeColor=none;fillColor=none;align=center;verticalAlign=middle;whiteSpace=wrap;rounded=0;fontColor=#FFFFFF;" parent="1" vertex="1">
          <mxGeometry x="780" y="167" width="90" height="20" as="geometry" />
        </mxCell>
      </root>
    </mxGraphModel>
  </diagram>
</mxfile>
